# xmcd
# 
# Track frame offsets:
#     150
#     13681
#     25723
#     47201
#     58267
#     87261
#     101013
#     110553
# 
# Disc length: 2293
# 
# Revision: 0
# Processed by: cddbd v1.5.2PL0 Copyright (c) Steve Scherf et al.
# Submitted via: fre:ac v1.0.17
# 
DISCID=6408f308
DTITLE=Shitkicker - cookin' with gas
DYEAR=2009
DGENRE=Rock
TTITLE0=urbanizer
TTITLE1=big burner
TTITLE2=autopilot subconscious
TTITLE3=cookin' with gas
TTITLE4=goddess
TTITLE5=never know (what hit you)
TTITLE6=emissions from the void (samadhi chronicles pt. 1)
TTITLE7=dive (samadhi chronicles pt. 2)
EXTD=
EXTT0=
EXTT1=
EXTT2=
EXTT3=
EXTT4=
EXTT5=
EXTT6=
EXTT7=
PLAYORDER=
